# xmcd CD database file
#
# Track frame offsets:
#	150
#	18441
#	35620
#	47529
#	67038
#	89438
#	103520
#	121353
#	135994
#	155059
#	170997
#	185418
#	202026
#	211290
#	232036
#	251809
#	266714
#	287763
#
# Disc length: 4000 seconds
#
# Revision: 0
# Processed by: cddbd v1.5.2PL0 Copyright (c) Steve Scherf et al.
# Submitted via: CDex 1.51
#
DISCID=130f9e12
DTITLE=Willie Nelson - To All The Girls
DYEAR=2014
DGENRE=Country
TTITLE0=From Here to the Moon - Dolly Parton
TTITLE1=She Was No Good for Me - Miranda Lambert
TTITLE2=It Won't Be Very Long - Secred Sisters
TTITLE3=Please Don't Tell Me How the Story Ends - Rosanna Cash
TTITLE4=Far Away Places-Sheryl Crow
TTITLE5=Bloody Mary Morning-Wynonna Judd
TTITLE6=Always on my Mind-Carrie Underwood
TTITLE7=Somewhere Between-Loretta Lynn
TTITLE8=No Mas Amor-Alison Krauss
TTITLE9=Back to Earth-Melonie Cannon
TTITLE10=Grandma's Hands-Mavis Staples
TTITLE11=Walkin'-Norah Jones
TTITLE12=Till the End of the World-Shelby Lynne
TTITLE13=Will You Remember Mine-Lily Meola
TTITLE14=Dry Lightning-Emmylou Harris
TTITLE15=Making Believe-Brandt Carlile
TTITLE16=Have You Ever Seen the Rain-Paula Nelson
TTITLE17=After the Fire is Gone-Tina Rose
EXTD=YEAR: 2014
EXTT0=
EXTT1=
EXTT2=
EXTT3=
EXTT4=
EXTT5=
EXTT6=
EXTT7=
EXTT8=
EXTT9=
EXTT10=
EXTT11=
EXTT12=
EXTT13=
EXTT14=
EXTT15=
EXTT16=
EXTT17=
PLAYORDER=
